{"title":"The Company Men 2011 DvDScr H264 Feel-Free","uid":6091365,"size":1248038667,"categoryP":"video","categoryS":"movies","magnet":"?xt=urn:btih:9aad56f328eff2330bd8a5a84bddb12da24715c6&amp;dn=The+Company+Men+2011+DvDScr+H264+Feel-Free&amp;tr=udp%3A%2F%2Ftracker.openbittorrent.com%3A80&amp;tr=udp%3A%2F%2Fopen.demonii.com%3A1337&amp;tr=udp%3A%2F%2Ftracker.coppersurfer.tk%3A6969&amp;tr=udp%3A%2F%2Fexodus.desync.com%3A6969","seeders":0,"leechers":1,"uploader":"HeroMaster","files":-1,"time":1294579557,"description":"The Company Men 2011 DvDScr H264 Feel-Free\n\nGenre:Drama\nLanguage:English\nIMDb:http://www.imdb.com/title/tt1172991/\nSource:DVDSCR Demedic Thx.\n\n\nFormat : MPEG-4\nFormat profile : Base Media\nCodec ID : isom\nFile size : 1.16 GiB\nDuration : 1h 44mn\nOverall bit rate : 1 588 Kbps\nMovie name : The Company Men 2011 DvDScr H264 Feel-Free\n\n\nVideo\nFormat settings, CABAC : Yes\nFormat settings, ReFrames : 4 frames\nCodec ID : avc1\nCodec ID/Info : Advanced Video Coding\nDuration : 1h 44mn\nBit rate mode : Variable\nBit rate : 1 200 Kbps\nWidth : 720 pixels\nHeight : 384 pixels\nDisplay aspect ratio : 1.875\nFrame rate mode : Constant\nFrame rate : 23.976 fps\nColor space : YUV\nChroma subsampling : 4:2:0\nBit depth : 8 bits\nScan type : Progressive\nBits/(Pixel*Frame) : 0.181\nStream size : 897 MiB (75%)\n\n\nAudio\nID : 2\nFormat : AAC\nFormat/Info : Advanced Audio Codec\nFormat version : Version 4\nFormat profile : LC\nCodec ID : 40\nDuration : 1h 44mn\nBit rate mode : Variable\nBit rate : 384 Kbps\nChannel(s) : 6 channels\nChannel positions : Front: L C R, Side: L R, LFE\nSampling rate : 48.0 KHz\nStream size : 287 MiB (24%)\n\n\n\nPlot:\nThe story centers on a year in the life of three men trying to survive a round of corporate downsizing at a major company - and how that affects them, their families, and their communities.\n\n\nScreenshots:\n\n &lt;a href=&quot;\nhttp://www.leetleech.org/images/07580260817148246278.png&quot; rel=&quot;nofollow&quot; target=&quot;_NEW&quot;&gt;\nhttp://www.leetleech.org/images/07580260817148246278.png&lt;/a&gt;\n &lt;a href=&quot;\nhttp://www.leetleech.org/images/54854682318293345972.png&quot; rel=&quot;nofollow&quot; target=&quot;_NEW&quot;&gt;\nhttp://www.leetleech.org/images/54854682318293345972.png&lt;/a&gt;\n &lt;a href=&quot;\nhttp://www.leetleech.org/images/48305979940097465010.png&quot; rel=&quot;nofollow&quot; target=&quot;_NEW&quot;&gt;\nhttp://www.leetleech.org/images/48305979940097465010.png&lt;/a&gt;\n\n\nENJOY!","torrent":{"xt":"urn:btih:9aad56f328eff2330bd8a5a84bddb12da24715c6","amp;dn":"The+Company+Men+2011+DvDScr+H264+Feel-Free","amp;tr":["udp%3A%2F%2Ftracker.openbittorrent.com%3A80","udp%3A%2F%2Fopen.demonii.com%3A1337","udp%3A%2F%2Ftracker.coppersurfer.tk%3A6969","udp%3A%2F%2Fexodus.desync.com%3A6969"],"infoHash":"9aad56f328eff2330bd8a5a84bddb12da24715c6","infoHashBuffer":{"type":"Buffer","data":[154,173,86,243,40,239,242,51,11,216,165,168,75,221,177,45,162,71,21,198]},"announce":[],"urlList":[]}}